<svg width="153" height="36" viewBox="0 0 153 36" fill="none" xmlns="http://www.w3.org/2000/svg">
<path d="M48.968 9.248V19.616C48.968 20.752 49.264 21.624 49.856 22.232C50.448 22.824 51.28 23.12 52.352 23.12C53.44 23.12 54.28 22.824 54.872 22.232C55.464 21.624 55.76 20.752 55.76 19.616V9.248H59.144V19.592C59.144 21.016 58.832 22.224 58.208 23.216C57.6 24.192 56.776 24.928 55.736 25.424C54.712 25.92 53.568 26.168 52.304 26.168C51.056 26.168 49.92 25.92 48.896 25.424C47.888 24.928 47.088 24.192 46.496 23.216C45.904 22.224 45.608 21.016 45.608 19.592V9.248H48.968ZM76.7184 26H73.3584L65.7504 14.504V26H62.3904V9.224H65.7504L73.3584 20.744V9.224H76.7184V26ZM83.3988 9.248V26H80.0388V9.248H83.3988ZM85.9025 17.6C85.9025 15.952 86.2705 14.48 87.0065 13.184C87.7585 11.872 88.7745 10.856 90.0545 10.136C91.3505 9.4 92.7985 9.032 94.3985 9.032C96.2705 9.032 97.9105 9.512 99.3185 10.472C100.727 11.432 101.711 12.76 102.271 14.456H98.4065C98.0225 13.656 97.4785 13.056 96.7745 12.656C96.0865 12.256 95.2865 12.056 94.3745 12.056C93.3985 12.056 92.5265 12.288 91.7585 12.752C91.0065 13.2 90.4145 13.84 89.9825 14.672C89.5665 15.504 89.3585 16.48 89.3585 17.6C89.3585 18.704 89.5665 19.68 89.9825 20.528C90.4145 21.36 91.0065 22.008 91.7585 22.472C92.5265 22.92 93.3985 23.144 94.3745 23.144C95.2865 23.144 96.0865 22.944 96.7745 22.544C97.4785 22.128 98.0225 21.52 98.4065 20.72H102.271C101.711 22.432 100.727 23.768 99.3185 24.728C97.9265 25.672 96.2865 26.144 94.3985 26.144C92.7985 26.144 91.3505 25.784 90.0545 25.064C88.7745 24.328 87.7585 23.312 87.0065 22.016C86.2705 20.72 85.9025 19.248 85.9025 17.6ZM112.916 26.168C111.348 26.168 109.908 25.8 108.596 25.064C107.284 24.328 106.244 23.312 105.476 22.016C104.708 20.704 104.324 19.224 104.324 17.576C104.324 15.944 104.708 14.48 105.476 13.184C106.244 11.872 107.284 10.848 108.596 10.112C109.908 9.376 111.348 9.008 112.916 9.008C114.5 9.008 115.94 9.376 117.236 10.112C118.548 10.848 119.58 11.872 120.332 13.184C121.1 14.48 121.484 15.944 121.484 17.576C121.484 19.224 121.1 20.704 120.332 22.016C119.58 23.312 118.548 24.328 117.236 25.064C115.924 25.8 114.484 26.168 112.916 26.168ZM112.916 23.168C113.924 23.168 114.812 22.944 115.58 22.496C116.348 22.032 116.948 21.376 117.38 20.528C117.812 19.68 118.028 18.696 118.028 17.576C118.028 16.456 117.812 15.48 117.38 14.648C116.948 13.8 116.348 13.152 115.58 12.704C114.812 12.256 113.924 12.032 112.916 12.032C111.908 12.032 111.012 12.256 110.228 12.704C109.46 13.152 108.86 13.8 108.428 14.648C107.996 15.48 107.78 16.456 107.78 17.576C107.78 18.696 107.996 19.68 108.428 20.528C108.86 21.376 109.46 22.032 110.228 22.496C111.012 22.944 111.908 23.168 112.916 23.168ZM132.624 26L128.928 19.472H127.344V26H123.984V9.248H130.272C131.568 9.248 132.672 9.48 133.584 9.944C134.496 10.392 135.176 11.008 135.624 11.792C136.088 12.56 136.32 13.424 136.32 14.384C136.32 15.488 136 16.488 135.36 17.384C134.72 18.264 133.768 18.872 132.504 19.208L136.512 26H132.624ZM127.344 16.952H130.152C131.064 16.952 131.744 16.736 132.192 16.304C132.64 15.856 132.864 15.24 132.864 14.456C132.864 13.688 132.64 13.096 132.192 12.68C131.744 12.248 131.064 12.032 130.152 12.032H127.344V16.952ZM151.575 14.432C151.575 15.328 151.359 16.168 150.927 16.952C150.511 17.736 149.847 18.368 148.935 18.848C148.039 19.328 146.903 19.568 145.527 19.568H142.719V26H139.359V9.248H145.527C146.823 9.248 147.927 9.472 148.839 9.92C149.751 10.368 150.431 10.984 150.879 11.768C151.343 12.552 151.575 13.44 151.575 14.432ZM145.383 16.856C146.311 16.856 146.999 16.648 147.447 16.232C147.895 15.8 148.119 15.2 148.119 14.432C148.119 12.8 147.207 11.984 145.383 11.984H142.719V16.856H145.383Z" fill="white"/>
<g clip-path="url(#clip0_198_242)">
<path d="M18.4414 35.8463C11.7671 36.7118 5.40726 33.9056 2.22478 27.9882C-1.12686 21.756 0.227688 11.9629 0.502328 4.61741C0.562788 3.0055 1.46196 1.51081 2.91878 0.775183C5.14934 -0.350748 8.33375 -0.173336 10.0093 1.48736C11.9157 3.37807 11.4005 4.80876 11.3734 7.0847C11.3194 11.7056 11.0628 17.1503 11.3734 21.6889C11.7323 26.9333 14.5218 32.3488 18.4408 35.8457L18.4414 35.8463Z" fill="white"/>
<path d="M18.7881 27.3647C18.9592 25.7553 19.3303 24.1402 19.4737 22.5277C19.9542 17.1248 19.1277 12.6648 18.9515 7.43753C18.8389 4.09649 19.2004 0.463986 23.3515 0.0521371C32.9632 -0.900817 30.4362 11.2164 28.0609 16.5673C26.1416 20.8917 22.6999 24.6997 18.7874 27.364L18.7881 27.3647Z" fill="white"/>
</g>
<defs>
<clipPath id="clip0_198_242">
<rect width="30.24" height="36" fill="white"/>
</clipPath>
</defs>
</svg>
