<svg width="171" height="42" viewBox="0 0 171 42" fill="none" xmlns="http://www.w3.org/2000/svg">
<path d="M49.796 11.456V23.552C49.796 24.8773 50.1413 25.8947 50.832 26.604C51.5227 27.2947 52.4933 27.64 53.744 27.64C55.0133 27.64 55.9933 27.2947 56.684 26.604C57.3747 25.8947 57.72 24.8773 57.72 23.552V11.456H61.668V23.524C61.668 25.1853 61.304 26.5947 60.576 27.752C59.8667 28.8907 58.9053 29.7493 57.692 30.328C56.4973 30.9067 55.1627 31.196 53.688 31.196C52.232 31.196 50.9067 30.9067 49.712 30.328C48.536 29.7493 47.6027 28.8907 46.912 27.752C46.2213 26.5947 45.876 25.1853 45.876 23.524V11.456H49.796ZM82.1714 31H78.2514L69.3754 17.588V31H65.4554V11.428H69.3754L78.2514 24.868V11.428H82.1714V31ZM89.9653 11.456V31H86.0453V11.456H89.9653ZM92.8863 21.2C92.8863 19.2773 93.3156 17.56 94.1743 16.048C95.0516 14.5173 96.2369 13.332 97.7303 12.492C99.2423 11.6333 100.932 11.204 102.798 11.204C104.982 11.204 106.896 11.764 108.538 12.884C110.181 14.004 111.329 15.5533 111.982 17.532H107.474C107.026 16.5987 106.392 15.8987 105.57 15.432C104.768 14.9653 103.834 14.732 102.77 14.732C101.632 14.732 100.614 15.0027 99.7183 15.544C98.8409 16.0667 98.1503 16.8133 97.6463 17.784C97.1609 18.7547 96.9183 19.8933 96.9183 21.2C96.9183 22.488 97.1609 23.6267 97.6463 24.616C98.1503 25.5867 98.8409 26.3427 99.7183 26.884C100.614 27.4067 101.632 27.668 102.77 27.668C103.834 27.668 104.768 27.4347 105.57 26.968C106.392 26.4827 107.026 25.7733 107.474 24.84H111.982C111.329 26.8373 110.181 28.396 108.538 29.516C106.914 30.6173 105.001 31.168 102.798 31.168C100.932 31.168 99.2423 30.748 97.7303 29.908C96.2369 29.0493 95.0516 27.864 94.1743 26.352C93.3156 24.84 92.8863 23.1227 92.8863 21.2ZM124.402 31.196C122.573 31.196 120.893 30.7667 119.362 29.908C117.832 29.0493 116.618 27.864 115.722 26.352C114.826 24.8213 114.378 23.0947 114.378 21.172C114.378 19.268 114.826 17.56 115.722 16.048C116.618 14.5173 117.832 13.3227 119.362 12.464C120.893 11.6053 122.573 11.176 124.402 11.176C126.25 11.176 127.93 11.6053 129.442 12.464C130.973 13.3227 132.177 14.5173 133.054 16.048C133.95 17.56 134.398 19.268 134.398 21.172C134.398 23.0947 133.95 24.8213 133.054 26.352C132.177 27.864 130.973 29.0493 129.442 29.908C127.912 30.7667 126.232 31.196 124.402 31.196ZM124.402 27.696C125.578 27.696 126.614 27.4347 127.51 26.912C128.406 26.3707 129.106 25.6053 129.61 24.616C130.114 23.6267 130.366 22.4787 130.366 21.172C130.366 19.8653 130.114 18.7267 129.61 17.756C129.106 16.7667 128.406 16.0107 127.51 15.488C126.614 14.9653 125.578 14.704 124.402 14.704C123.226 14.704 122.181 14.9653 121.266 15.488C120.37 16.0107 119.67 16.7667 119.166 17.756C118.662 18.7267 118.41 19.8653 118.41 21.172C118.41 22.4787 118.662 23.6267 119.166 24.616C119.67 25.6053 120.37 26.3707 121.266 26.912C122.181 27.4347 123.226 27.696 124.402 27.696ZM147.395 31L143.083 23.384H141.235V31H137.315V11.456H144.651C146.163 11.456 147.451 11.7267 148.515 12.268C149.579 12.7907 150.372 13.5093 150.895 14.424C151.436 15.32 151.707 16.328 151.707 17.448C151.707 18.736 151.333 19.9027 150.587 20.948C149.84 21.9747 148.729 22.684 147.255 23.076L151.931 31H147.395ZM141.235 20.444H144.511C145.575 20.444 146.368 20.192 146.891 19.688C147.413 19.1653 147.675 18.4467 147.675 17.532C147.675 16.636 147.413 15.9453 146.891 15.46C146.368 14.956 145.575 14.704 144.511 14.704H141.235V20.444ZM169.504 17.504C169.504 18.5493 169.252 19.5293 168.748 20.444C168.263 21.3587 167.488 22.096 166.424 22.656C165.379 23.216 164.054 23.496 162.448 23.496H159.172V31H155.252V11.456H162.448C163.96 11.456 165.248 11.7173 166.312 12.24C167.376 12.7627 168.17 13.4813 168.692 14.396C169.234 15.3107 169.504 16.3467 169.504 17.504ZM162.28 20.332C163.363 20.332 164.166 20.0893 164.688 19.604C165.211 19.1 165.472 18.4 165.472 17.504C165.472 15.6 164.408 14.648 162.28 14.648H159.172V20.332H162.28Z" fill="white"/>
<g clip-path="url(#clip0_198_37)">
<path d="M20.4905 40.8285C13.0745 41.7902 6.00806 38.6721 2.47197 32.0973C-1.25207 25.1726 0.252984 14.2913 0.558139 6.1297C0.625316 4.33869 1.6244 2.67792 3.24308 1.86055C5.72149 0.60952 9.25972 0.806644 11.1214 2.65187C13.2396 4.75265 12.6672 6.34231 12.6372 8.87113C12.5771 14.0055 12.292 20.0551 12.6372 25.098C13.0359 30.9251 16.1354 36.9423 20.4897 40.8278L20.4905 40.8285Z" fill="url(#paint0_linear_198_37)"/>
<path d="M20.8757 31.4053C21.0657 29.6171 21.4781 27.8226 21.6375 26.0308C22.1713 20.0277 21.253 15.0722 21.0572 9.26403C20.9321 5.55176 21.3337 1.51565 25.9461 1.05804C36.6258 -0.000799358 33.818 13.4628 31.1788 19.4082C29.0463 24.2131 25.2222 28.4442 20.8749 31.4046L20.8757 31.4053Z" fill="url(#paint1_linear_198_37)"/>
</g>
<defs>
<linearGradient id="paint0_linear_198_37" x1="4.5516" y1="2.65609" x2="11.3602" y2="38.9483" gradientUnits="userSpaceOnUse">
<stop stop-color="#4D76FF"/>
<stop offset="1" stop-color="#02D5E7"/>
</linearGradient>
<linearGradient id="paint1_linear_198_37" x1="26.5135" y1="-0.533739" x2="27.6316" y2="32.0415" gradientUnits="userSpaceOnUse">
<stop stop-color="#4D76FF"/>
<stop offset="1" stop-color="#02D5E7"/>
</linearGradient>
<clipPath id="clip0_198_37">
<rect width="33.6" height="40" fill="white" transform="translate(0 1)"/>
</clipPath>
</defs>
</svg>
