<svg width="24" height="24" viewBox="0 0 24 24" fill="none" xmlns="http://www.w3.org/2000/svg">
<path d="M13.0281 2.00098C14.1535 2.00284 14.7238 2.0088 15.2166 2.02347L15.4107 2.02981C15.6349 2.03778 15.8561 2.04778 16.1228 2.06028C17.1869 2.10945 17.9128 2.27778 18.5503 2.52528C19.2094 2.77945 19.7661 3.12278 20.3219 3.67862C20.8769 4.23445 21.2203 4.79278 21.4753 5.45028C21.7219 6.08695 21.8903 6.81362 21.9403 7.87778C21.9522 8.14445 21.9618 8.36565 21.9697 8.58989L21.976 8.78398C21.9906 9.27672 21.9973 9.84711 21.9994 10.9725L22.0002 11.7181C22.0003 11.8092 22.0003 11.9032 22.0003 12.0002L22.0002 12.2823L21.9996 13.028C21.9977 14.1534 21.9918 14.7238 21.9771 15.2165L21.9707 15.4106C21.9628 15.6349 21.9528 15.8561 21.9403 16.1227C21.8911 17.1869 21.7219 17.9127 21.4753 18.5502C21.2211 19.2094 20.8769 19.7661 20.3219 20.3219C19.7661 20.8769 19.2069 21.2202 18.5503 21.4752C17.9128 21.7219 17.1869 21.8902 16.1228 21.9402C15.8561 21.9521 15.6349 21.9618 15.4107 21.9696L15.2166 21.9759C14.7238 21.9906 14.1535 21.9972 13.0281 21.9994L12.2824 22.0002C12.1913 22.0002 12.0973 22.0002 12.0003 22.0002H11.7182L10.9725 21.9995C9.8471 21.9977 9.27672 21.9917 8.78397 21.977L8.58989 21.9707C8.36564 21.9627 8.14444 21.9527 7.87778 21.9402C6.81361 21.8911 6.08861 21.7219 5.45028 21.4752C4.79194 21.2211 4.23444 20.8769 3.67861 20.3219C3.12278 19.7661 2.78028 19.2069 2.52528 18.5502C2.27778 17.9127 2.11028 17.1869 2.06028 16.1227C2.0484 15.8561 2.03871 15.6349 2.03086 15.4106L2.02457 15.2165C2.00994 14.7238 2.00327 14.1534 2.00111 13.028L2.00098 10.9725C2.00284 9.84711 2.00879 9.27672 2.02346 8.78398L2.02981 8.58989C2.03778 8.36565 2.04778 8.14445 2.06028 7.87778C2.10944 6.81278 2.27778 6.08778 2.52528 5.45028C2.77944 4.79195 3.12278 4.23445 3.67861 3.67862C4.23444 3.12278 4.79278 2.78028 5.45028 2.52528C6.08778 2.27778 6.81278 2.11028 7.87778 2.06028C8.14444 2.04841 8.36564 2.03872 8.58989 2.03087L8.78397 2.02458C9.27672 2.00994 9.8471 2.00327 10.9725 2.00111L13.0281 2.00098ZM12.0003 7.00028C9.23738 7.00028 7.00028 9.23981 7.00028 12.0002C7.00028 14.7631 9.23981 17.0002 12.0003 17.0002C14.7632 17.0002 17.0003 14.7607 17.0003 12.0002C17.0003 9.23738 14.7607 7.00028 12.0003 7.00028ZM12.0003 9.00028C13.6572 9.00028 15.0003 10.3429 15.0003 12.0002C15.0003 13.6571 13.6576 15.0002 12.0003 15.0002C10.3434 15.0002 9.00028 13.6576 9.00028 12.0002C9.00028 10.3433 10.3429 9.00028 12.0003 9.00028ZM17.2503 5.50028C16.561 5.50028 16.0003 6.06019 16.0003 6.74943C16.0003 7.43868 16.5602 7.99945 17.2503 7.99945C17.9395 7.99945 18.5003 7.43955 18.5003 6.74943C18.5003 6.06019 17.9386 5.49942 17.2503 5.50028Z" fill="#BDBDBD"/>
</svg>
