<svg width="50" height="50" viewBox="0 0 50 50" fill="none" xmlns="http://www.w3.org/2000/svg">
<g clip-path="url(#clip0_198_260)">
<path d="M43.7047 8.92285C44.7354 11.0996 44.3933 13.9495 43.8174 16.229C41.0154 27.3186 28.0659 40.261 17.1848 43.5487C14.6011 44.3302 11.5401 44.8258 8.97748 43.7726L43.7047 8.92285Z" fill="white"/>
<path d="M36.2085 5.69393C37.763 5.55172 39.661 5.54187 41.0619 6.27967L6.28258 41.0717C5.58561 39.7594 5.56167 37.9811 5.66023 36.5168C6.47547 24.3712 24.1517 6.795 36.2099 5.69534L36.2085 5.69393Z" fill="white"/>
<path d="M15.1038 48.0431C15.1235 47.8686 15.2699 47.87 15.3952 47.8305C16.0471 47.625 16.8976 47.5334 17.6002 47.3391C29.6922 43.9853 43.3485 30.5458 47.0502 18.565C47.3698 17.5329 47.5106 16.3713 47.8176 15.3969C47.857 15.2716 47.8556 15.1252 48.0302 15.1055C51.2221 22.9031 50.5012 31.8876 45.8083 38.908C39.1048 48.9344 26.2693 52.653 15.1038 48.0446V48.0431Z" fill="white"/>
<path d="M34.8835 1.95187C34.8638 2.12647 34.7174 2.12506 34.5921 2.16448C33.9402 2.37005 33.0897 2.46157 32.3871 2.65588C20.2909 6.01259 6.63876 19.4479 2.93709 31.4315C2.61747 32.4635 2.47667 33.6252 2.16972 34.5995C2.1303 34.7248 2.13171 34.8713 1.95711 34.891C-2.49503 24.0788 0.80958 11.6644 10.2362 4.78198C17.3791 -0.433305 26.7072 -1.39216 34.8835 1.95187Z" fill="white"/>
</g>
<defs>
<clipPath id="clip0_198_260">
<rect width="49.9789" height="50" fill="white"/>
</clipPath>
</defs>
</svg>
