<svg width="50" height="50" viewBox="0 0 50 50" fill="none" xmlns="http://www.w3.org/2000/svg">
<g clip-path="url(#clip0_198_271)">
<path d="M49.8352 25.833C49.7046 25.993 47.3313 26.7861 46.9346 26.9036C44.8992 27.5025 42.5177 27.9464 40.3924 27.8256C32.4775 27.3719 27.6133 20.3972 20.8312 17.3324C13.2656 13.912 3.70694 14.976 0.13878 23.2987C-0.055461 23.3313 0.00819792 23.1273 0.0179916 22.9968C1.28301 6.89639 17.5748 -3.86604 32.9476 1.31037C42.9013 4.66067 50.0164 14.364 50 24.9502C50 25.1542 49.9494 25.6943 49.8368 25.833H49.8352Z" fill="white"/>
<path d="M5.27061 19.7572C6.39199 26.3926 10.3029 32.992 16.2657 36.3129C19.7212 38.2386 23.6876 39.0333 27.5871 39.5294C34.1848 40.3698 41.6492 40.2344 47.1206 36.0045C47.2888 35.967 47.3508 36.0126 47.3002 36.184C47.1908 36.5528 46.0401 38.5046 45.7626 38.8016C44.9073 39.7138 42.1879 41.1744 40.9914 41.7276C28.5143 47.5078 11.5288 43.8589 4.88213 31.2002C3.99254 29.5046 2.21825 25.0593 2.32598 23.2348C2.36026 22.6604 3.21557 21.567 3.61875 21.1003C3.81625 20.8718 5.05352 19.5402 5.26898 19.7572H5.27061Z" fill="white"/>
<path d="M49.5006 29.1637C49.4287 29.9764 49.2769 31.1302 48.9815 31.8809C48.686 32.6315 45.5145 34.9864 44.6527 35.4923C38.481 39.1102 29.3745 38.384 22.6446 36.7766C13.5218 34.598 8.30017 27.6771 6.85071 18.6151C8.40627 17.7045 10.2377 17.5494 11.9908 17.3145C12.7302 24.596 17.1324 30.5639 24.0256 33.0738C32.6146 36.2021 42.5323 35.3715 49.5022 29.1621L49.5006 29.1637Z" fill="white"/>
<path d="M46.8138 28.9206C44.0471 31.2118 40.1917 32.5826 36.6104 32.9498C31.7528 33.4475 25.1812 32.2415 21.045 29.5815C16.8843 26.9068 14.3706 22.3195 13.8254 17.4385C23.4526 17.7094 28.862 27.5808 37.8901 29.3514C40.9131 29.9454 43.8447 29.6207 46.8138 28.9206Z" fill="white"/>
<path d="M41.5595 43.5787C38.0158 46.9013 33.1206 49.1615 28.2858 49.7897C16.992 51.2552 6.02964 44.9495 1.79061 34.4139C1.30256 33.2014 0.301974 30.3439 0.308503 29.1233C0.310136 28.7055 0.734529 26.5383 0.932034 26.2315C0.969577 26.1728 1.0871 26.0732 1.11485 26.1108C2.96912 33.9472 8.6266 40.6201 16.0616 43.7223C24.1251 47.0873 33.5548 47.1183 41.5579 43.5803L41.5595 43.5787Z" fill="white"/>
</g>
<defs>
<clipPath id="clip0_198_271">
<rect width="50" height="50" fill="white"/>
</clipPath>
</defs>
</svg>
