<svg width="50" height="50" viewBox="0 0 50 50" fill="none" xmlns="http://www.w3.org/2000/svg">
<g clip-path="url(#clip0_198_288)">
<path d="M9.03262 5.89843C10.9546 23.5026 26.4948 39.0235 44.1012 40.9528C44.1968 41.0306 43.4811 41.8636 43.3919 41.9656C42.8229 42.6114 41.0436 44.3762 40.3627 44.7603C39.9736 44.9799 38.7447 44.796 38.2324 44.7401C22.7125 43.0458 8.14987 28.6438 5.50404 13.4057C5.38569 12.7218 4.96417 10.1905 5.17169 9.70189C5.22843 9.569 6.17036 8.4808 6.35599 8.27255C6.81966 7.75235 7.49814 7.06605 8.01855 6.60743C8.12069 6.51749 8.95399 5.80282 9.03181 5.89843H9.03262Z" fill="white"/>
<path d="M47.7878 35.2498C47.0672 36.6492 46.4366 38.136 45.4071 39.3515C30.1798 38.367 16.033 25.9219 11.8276 11.4819C11.2885 9.63037 10.6052 6.76927 10.5841 4.86916C10.5784 4.37408 11.9468 3.64239 12.4015 3.38148C13.1562 2.94798 13.9717 2.61982 14.7385 2.21387C17.467 18.5102 31.4914 32.5232 47.7878 35.2498Z" fill="white"/>
<path d="M37.8018 46.5364C35.8207 47.5841 33.8249 48.5322 31.646 49.1188C29.9397 49.5774 29.6398 49.6982 27.9099 49.2379C16.1269 46.0981 5.31501 35.5255 1.37059 24.0746C1.10795 23.3114 0.357324 21.1511 0.367862 20.4673C0.375968 19.9317 0.811265 18.4643 0.983925 17.8744C1.56108 15.9046 2.4568 14.0426 3.44574 12.2535C3.59571 12.1481 3.65812 12.3782 3.68163 12.4957C3.89239 13.5718 3.98804 14.6632 4.24095 15.7393C7.52878 29.7353 20.1013 42.3157 34.0665 45.6978C35.203 45.9733 36.3622 46.0721 37.4962 46.3096C37.6381 46.3395 37.7791 46.3647 37.8018 46.5364Z" fill="white"/>
<path d="M21.028 0.444305C24.85 13.9217 36.0778 25.1368 49.5574 28.9621C49.8241 29.2725 48.703 32.969 48.4842 33.5678C48.2337 33.7282 45.7881 33.1456 45.3114 33.0298C31.9875 29.7902 19.9021 17.5817 16.842 4.21211C16.7488 3.80616 16.2325 1.66054 16.4748 1.48714C17.0698 1.27646 20.7232 0.181774 21.028 0.443494V0.444305Z" fill="white"/>
<path d="M30.1717 0.57202C32.5054 9.92266 40.0773 17.4858 49.4301 19.8227C49.8038 22.0518 50.1483 24.6163 49.9335 26.877C49.9214 27.0091 49.9352 27.1444 49.8111 27.2343C37.0692 23.6164 26.455 12.9353 22.7254 0.248718C22.8057 0.0704557 22.954 0.0842305 23.1153 0.0688352C25.3672 -0.153992 27.9498 0.204152 30.1725 0.57202H30.1717Z" fill="white"/>
<path d="M48.857 17.8987C40.9066 15.5375 34.322 9.0415 32.0969 1.02539C38.2494 2.94414 43.5767 7.07414 46.7381 12.7096C47.0883 13.3336 49.144 17.5786 48.857 17.8987Z" fill="white"/>
<path d="M24.606 49.8651C24.6336 50.0726 24.3361 49.977 24.1918 49.9826C22.9929 50.0329 21.4957 49.8084 20.305 49.5888C8.75782 47.4602 0.0089167 37.1721 0 25.3857L0.928958 27.6043C5.50485 37.6315 13.8379 45.6241 24.0654 49.7509C24.2356 49.8198 24.4228 49.853 24.606 49.8651Z" fill="white"/>
</g>
<defs>
<clipPath id="clip0_198_288">
<rect width="50" height="50" fill="white"/>
</clipPath>
</defs>
</svg>
