<svg width="50" height="50" viewBox="0 0 50 50" fill="none" xmlns="http://www.w3.org/2000/svg">
<g clip-path="url(#clip0_198_277)">
<path d="M5.5749 40.8014C4.2183 38.8365 2.76622 36.8745 1.96893 34.5954C5.20354 34.5135 8.47453 33.336 11.4712 32.1692C21.0355 28.4456 33.9679 21.012 41.3981 13.9336C42.6365 12.7531 43.9764 11.3374 44.7752 9.84277C46.3561 11.6211 47.3808 13.8744 48.3266 16.0518L48.2644 16.2187L5.5749 40.8014Z" fill="white"/>
<path d="M42.4865 7.33451L0.771531 31.3239C0.582062 30.1055 0.247082 28.9007 0.118243 27.6701C0.0727705 27.2316 -0.121245 25.1195 0.115211 24.9419C7.28319 22.9952 14.1723 19.5993 20.5596 15.859C26.5453 12.3539 32.4128 8.32383 37.3738 3.46069C37.5966 3.33627 37.7967 3.5138 37.9877 3.60939C38.9093 4.07219 41.8301 6.25567 42.3819 7.05987C42.4455 7.15091 42.5304 7.17367 42.488 7.33299L42.4865 7.33451Z" fill="white"/>
<path d="M8.61401 43.7563C14.8483 42.6774 20.9189 39.7808 26.4801 36.8341C34.8789 32.3822 42.729 27.3066 49.2603 20.3859C49.3422 20.2994 49.3967 20.0961 49.5165 20.3116C49.6468 20.5468 49.859 22.3646 49.8954 22.7682C50.0106 24.0458 50.0652 25.859 49.8863 27.1185C49.8606 27.3005 49.8075 27.5372 49.6756 27.6708L14.7695 47.7834C12.5686 46.7698 10.3177 45.4937 8.61553 43.7578L8.61401 43.7563Z" fill="white"/>
<path d="M48.6965 18.0234C48.8602 18.1888 47.0731 20.3435 46.8488 20.5878C40.6615 27.3248 27.2426 34.9465 18.818 38.6504C15.1196 40.277 11.0544 41.9552 6.98157 42.1191L48.6965 18.0234Z" fill="white"/>
<path d="M43.358 8.86328C43.4792 8.98315 42.1135 10.6902 41.9453 10.8829C38.8532 14.4062 33.9558 17.8567 30.0179 20.4225C23.9503 24.3768 16.843 28.3234 10.0555 30.8604C7.46807 31.827 4.63817 32.8284 1.8598 32.8497L43.358 8.86328Z" fill="white"/>
<path d="M32.0308 1.11981L0.771545 19.1126C1.16716 16.8745 2.08722 14.7427 3.21645 12.7837C11.0271 9.35603 18.4679 5.08467 25.3115 0C27.3184 0.0834547 29.8542 0.213948 31.755 0.907381C31.8702 0.949867 32.0157 0.958971 32.0308 1.11981Z" fill="white"/>
<path d="M35.843 2.43067C32.3992 5.97673 28.2234 8.95531 24.0702 11.6334C16.6946 16.3904 8.56258 20.6632 0.118347 23.1456L0.294174 21.3901L34.1348 1.85407C34.5986 1.69778 35.3504 2.35328 35.843 2.43067Z" fill="white"/>
<path d="M16.8915 48.6601L49.4573 29.7979C49.5619 29.9314 48.7692 32.8128 48.5358 33.0708C48.0916 33.5594 46.876 34.397 46.2894 34.8567C40.5038 39.3785 33.3843 43.5664 26.7348 46.683C25.1205 47.4402 21.995 49.0106 20.3807 49.3703C19.3121 49.6085 17.9601 48.8073 16.8945 48.6586L16.8915 48.6601Z" fill="white"/>
<path d="M47.1716 36.4498C42.826 45.0501 33.4026 50.4702 23.7548 49.9679L31.8171 46.1002C35.0638 44.3461 38.2545 42.498 41.3481 40.4844L47.1731 36.4482L47.1716 36.4498Z" fill="white"/>
<path d="M22.1193 0.141602L19.0606 2.2568C14.5527 5.15192 9.88422 7.80881 5.02018 10.0621C4.93378 9.9756 5.82353 8.89676 5.94327 8.75261C9.84481 4.0397 16.0442 0.806205 22.1193 0.141602Z" fill="white"/>
</g>
<defs>
<clipPath id="clip0_198_277">
<rect width="50" height="50" fill="white"/>
</clipPath>
</defs>
</svg>
