<svg width="50" height="50" viewBox="0 0 50 50" fill="none" xmlns="http://www.w3.org/2000/svg">
<g clip-path="url(#clip0_198_87)">
<path d="M1.03291 17.6016C1.94299 13.9967 4.03813 10.3031 6.60227 7.58042C7.38254 6.75238 7.54864 6.33766 8.76441 6.43614C13.4544 6.8134 21.0463 10.5514 25.097 13.0175C28.2976 14.9676 30.9441 17.3103 33.92 19.5309C38.7245 23.1163 43.829 26.6546 49.2923 29.1706C49.5017 29.3981 49.21 30.3232 49.1248 30.6672C49.0327 31.0389 48.4213 33.1291 48.2175 33.1971C45.7343 33.3691 43.6741 33.1832 41.3193 32.4412C31.6225 29.387 22.8511 22.7224 13.2408 19.2604C9.35485 17.8609 5.17992 16.7721 1.0357 17.6016H1.03291Z" fill="white"/>
<path d="M46.5034 36.7545C46.59 36.8294 45.772 38.0777 45.6632 38.1887C45.3212 38.5382 44.2869 38.6478 43.7578 38.7324C30.933 40.7768 23.0437 33.9791 11.8171 30.0816C8.1321 28.8028 4.19446 27.6724 0.252639 27.7861C0.115847 26.2757 -0.069798 24.7083 0.0237226 23.1882C0.0488475 22.7832 0.104681 21.8608 0.365701 21.6458C1.69313 20.5543 4.99846 20.8178 6.60645 21.0855C17.9573 22.9774 29.244 32.4687 40.6005 35.9181C42.5267 36.5035 44.4697 36.9071 46.502 36.7531L46.5034 36.7545Z" fill="white"/>
<path d="M41.9335 42.5115L38.8041 44.9915C38.1396 45.2814 37.3524 46.0803 36.6433 46.1663C34.2411 46.4562 29.988 45.7973 27.5369 45.3535C24.286 44.7654 21.165 43.6572 17.9769 43.0039C15.2062 42.4366 12.5178 42.7071 10.1142 44.2591C5.80805 41.0524 2.59485 36.5224 1.03571 31.3905L1.29812 31.2227C11.1052 32.0174 19.3001 37.8498 28.3898 40.8513C32.8494 42.3243 37.21 43.0192 41.9321 42.5115H41.9335Z" fill="white"/>
<path d="M11.7319 3.42982C12.9924 2.52827 14.4915 1.79731 15.939 1.24529C19.1885 0.00668707 20.4433 0.16758 23.6844 1.35625C31.5639 4.24538 37.7642 10.989 43.106 17.157C44.8899 19.2168 46.5998 21.7161 48.6195 23.5262C49.3049 24.1406 50.3127 24.3376 49.9065 25.4652C49.7725 25.6386 49.7781 25.5235 49.6636 25.4819C49.2044 25.3168 48.5553 24.9437 48.1017 24.7051C41.6906 21.3347 36.3683 16.6272 30.6036 12.4176C24.8388 8.20807 18.3817 5.23293 11.7319 3.42982Z" fill="white"/>
<path d="M49.2895 18.9299C47.4038 16.9867 45.7999 14.7592 43.9979 12.7286C41.0625 9.42056 37.9344 6.24292 34.456 3.49803L29.2301 0C38.9967 1.44388 47.2809 9.34982 49.2895 18.9299Z" fill="white"/>
<path d="M27.6681 48.9319L26.1634 49.151C21.9103 49.2967 17.6531 48.402 13.8494 46.5504C13.9206 46.3936 14.4064 46.3146 14.585 46.2868C16.8142 45.9415 21.5823 47.6517 23.9887 48.212C25.2031 48.495 26.4356 48.7335 27.6681 48.9319Z" fill="white"/>
</g>
<defs>
<clipPath id="clip0_198_87">
<rect width="50" height="49.1667" fill="white"/>
</clipPath>
</defs>
</svg>
