<svg width="50" height="50" viewBox="0 0 50 50" fill="none" xmlns="http://www.w3.org/2000/svg">
<g clip-path="url(#clip0_198_265)">
<path d="M49.8588 27.233C48.9624 38.1473 40.5935 47.4422 29.86 49.5246C12.2032 52.9509 -3.18914 37.3101 0.57035 19.6957C1.74775 14.1771 4.97078 8.96637 9.42768 5.52734C9.78062 9.06802 9.75379 12.7259 9.30768 16.2595C9.06203 18.2105 8.55098 20.1418 8.37169 22.0985C6.72841 39.9797 26.1301 50.5777 39.7013 38.1924C41.8796 36.2033 43.5935 33.6593 45.5727 31.4655C46.9139 29.9789 48.3242 28.5092 49.8602 27.2316L49.8588 27.233Z" fill="white"/>
<path d="M49.4353 19.9264C49.7162 21.348 49.9506 22.8276 49.9096 24.2661C48.176 25.8402 46.4325 27.4242 44.8301 29.1367C41.929 32.2369 39.6165 35.9441 36.0716 38.3738C25.2251 45.8052 11.7697 38.8989 10.4879 26.1198C10.1406 22.6511 11.0017 19.8191 11.4239 16.4704C11.9406 12.3764 11.8389 8.21735 11.4592 4.11762C11.6243 3.5868 15.4826 1.8687 16.2012 1.61035C16.3043 2.99387 16.3706 4.40421 16.3128 5.79761C16.1335 10.102 14.7302 14.1439 15.2638 18.485C16.732 30.4284 29.6637 36.6303 39.8198 29.8411C43.7346 27.2238 45.9638 23.0224 49.4367 19.9278L49.4353 19.9264Z" fill="white"/>
<path d="M22.0233 0.233398C21.8892 1.88232 21.3838 3.50443 21.2835 5.15759C20.4464 18.9532 35.7596 26.3593 45.7365 16.4897C46.345 15.8883 46.8334 15.1062 47.4165 14.4879C47.5012 14.3989 47.4885 14.3904 47.6353 14.4201C47.7736 14.982 48.9341 17.1857 48.752 17.5923C47.8979 18.5015 46.9478 19.3273 46.1007 20.2422C43.4142 23.1433 41.2725 26.612 37.7587 28.6265C29.2501 33.5041 19.2549 28.563 17.5226 19.0817C16.6982 14.5641 18.2313 10.4079 18.4233 5.89593C18.4939 4.23712 18.3782 2.58255 18.3118 0.929392L22.0219 0.233398H22.0233Z" fill="white"/>
<path d="M26.7611 0.154143C26.9334 0.738608 26.9079 1.35413 27.0294 1.94989C28.7475 10.3286 37.4918 14.3747 44.9304 9.96864C45.272 10.6251 46.1416 11.4707 46.3929 12.1272C46.4395 12.2486 46.4833 12.2585 46.4226 12.4053C46.3393 12.61 45.2762 13.8467 45.0447 14.1065C36.5206 23.6358 22.6247 17.8335 23.3997 5.26468C23.5056 3.54094 24.0619 1.84683 24.1861 0.121673C24.2906 -0.0350313 26.5804 -0.0519724 26.7611 0.155555V0.154143Z" fill="white"/>
<path d="M29.0101 0.338867C34.5964 1.24521 39.69 4.09695 43.5074 8.22632C37.3296 12.1835 29.2417 7.48798 29.0101 0.338867Z" fill="white"/>
</g>
<defs>
<clipPath id="clip0_198_265">
<rect width="49.9139" height="50" fill="white"/>
</clipPath>
</defs>
</svg>
