<svg width="120" height="120" viewBox="0 0 120 120" fill="none" xmlns="http://www.w3.org/2000/svg">
<g clip-path="url(#clip0_90_125)">
<path d="M120 0H0V120H120V0Z" fill="#C4C4C4" fill-opacity="0.01"/>
<path d="M60.0036 67.9512C64.4417 67.9512 68.0395 64.3536 68.0395 59.9156C68.0395 55.4775 64.4417 51.8799 60.0036 51.8799C55.5657 51.8799 51.9679 55.4775 51.9679 59.9156C51.9679 64.3536 55.5657 67.9512 60.0036 67.9512Z" fill="#007ACC"/>
<path d="M60.0036 78.3409C50.3451 78.5746 40.7108 77.2726 31.4607 74.4838C27.1877 73.1293 23.2023 70.9954 19.7061 68.1903C18.3719 67.232 17.2609 65.9962 16.4492 64.5682C15.6375 63.14 15.1443 61.5534 15.0035 59.9166C15.0035 54.6034 20.8407 49.3964 30.6185 45.9891C40.1158 42.9702 50.0391 41.5069 60.0036 41.6564C69.835 41.5189 79.6253 42.9558 89.0028 45.9121C93.1181 47.2239 96.9682 49.2546 100.375 51.9099C101.686 52.8236 102.781 54.0142 103.581 55.3981C104.38 56.7817 104.866 58.3244 105.004 59.9166C105.004 65.4387 98.4785 71.0348 87.968 74.5126C78.8969 77.2107 69.4659 78.5019 60.0036 78.3409ZM60.0036 45.5005C50.4704 45.3733 40.9776 46.7641 31.8819 49.6213C22.8818 52.7617 18.8478 57.056 18.8478 59.907C18.8478 62.8899 23.1839 67.5795 32.7046 70.8356C41.5539 73.4902 50.7677 74.7258 60.0036 74.4966C69.0562 74.6586 78.0804 73.4336 86.7624 70.8646C96.6464 67.5891 101.146 62.893 101.146 59.9166C100.984 58.8954 100.612 57.9186 100.053 57.0483C99.4944 56.1781 98.7612 55.4331 97.8999 54.8605C94.8521 52.5049 91.4127 50.7054 87.7397 49.5442C78.7688 46.7276 69.4052 45.3627 60.0036 45.5005Z" fill="#007ACC"/>
<path d="M41.7457 99.995C40.2461 100.03 38.7644 99.6657 37.4513 98.9409C32.8486 96.2858 31.2543 88.6293 33.1861 78.4562C35.3161 68.7203 39.0065 59.3932 44.1147 50.8358C48.9063 42.2507 55.0405 34.4877 62.2849 27.8406C65.4773 24.9309 69.1599 22.6096 73.1621 20.9847C74.6098 20.3063 76.1888 19.9546 77.7874 19.9546C79.3861 19.9546 80.9653 20.3063 82.4129 20.9847C87.199 23.7425 88.7835 32.1897 86.5496 43.0314C84.3538 52.239 80.7593 61.0554 75.8909 69.1732C71.2681 77.657 65.3269 85.3523 58.2896 91.9722C54.9814 94.9962 51.1421 97.3816 46.9657 99.0083C45.2936 99.629 43.5289 99.9626 41.7457 99.995ZM47.4447 52.745C42.572 60.9393 39.0349 69.857 36.9661 79.1632C35.1886 88.5328 36.8953 94.1675 39.3769 95.601C41.9482 97.0893 48.1904 95.6783 55.7696 89.057C62.4877 82.715 68.1581 75.3486 72.5708 67.2318C77.2345 59.4709 80.6825 51.0419 82.7953 42.2375C84.8974 32.0322 83.0813 25.7836 80.5035 24.2987C79.5373 23.9284 78.5048 23.7627 77.4713 23.8119C76.4379 23.8612 75.4258 24.1242 74.4992 24.5848C70.9369 26.0548 67.6616 28.1416 64.8243 30.7497C57.9029 37.1164 52.0433 44.5485 47.467 52.7644L47.4447 52.745Z" fill="#007ACC"/>
<path d="M78.2511 100.037C73.8958 100.037 68.364 97.401 62.604 92.4479C55.2327 85.7404 48.9946 77.8852 44.1315 69.1859C39.0874 60.7465 35.4262 51.5543 33.2864 41.9579C32.3585 37.7358 32.1864 33.3827 32.7785 29.1006C32.9156 27.5121 33.3992 25.9732 34.1955 24.5917C34.992 23.2106 36.0816 22.021 37.388 21.1067C42.1676 18.3392 50.2771 21.1839 58.554 28.5318C65.4343 35.0315 71.2774 42.5483 75.8789 50.8197C80.9199 59.0622 84.6195 68.0531 86.8397 77.4563C87.8076 81.8332 87.9569 86.3517 87.2801 90.7828C87.1191 92.4169 86.6064 93.9971 85.7775 95.4145C84.9488 96.832 83.8232 98.0536 82.478 98.9953C81.1863 99.7113 79.7273 100.071 78.2511 100.037ZM47.4581 67.251C52.1235 75.5646 58.0824 83.0826 65.1111 89.5228C72.3401 95.7424 78.0742 97.0797 80.5397 95.6301C83.1111 94.1353 85.0075 88.0345 83.0532 78.1636C80.9122 69.1859 77.3636 60.6035 72.5393 52.7353C68.148 44.8189 62.5709 37.6213 56.0019 31.3924C48.2103 24.4753 41.8911 22.9292 39.3164 24.4206C38.514 25.0727 37.8555 25.8841 37.3824 26.8036C36.9094 27.7233 36.6322 28.7308 36.5681 29.7628C36.0572 33.5817 36.2237 37.4608 37.0601 41.2218C39.1181 50.3989 42.6296 59.1885 47.4615 67.2575L47.4581 67.251Z" fill="#007ACC"/>
</g>
<defs>
<clipPath id="clip0_90_125">
<rect width="120" height="120" fill="white"/>
</clipPath>
</defs>
</svg>
