<svg width="120" height="120" viewBox="0 0 120 120" fill="none" xmlns="http://www.w3.org/2000/svg">
<path d="M52.6865 21.3642C51.665 20.32 50.2469 19.677 48.667 19.677C47.0906 19.677 45.684 20.32 44.6755 21.3642H44.6491C43.6308 22.4004 42.9989 23.8467 42.9989 25.4447C42.9989 27.0525 43.6308 28.4896 44.6491 29.5156L44.6755 29.5442C45.684 30.5793 47.0906 31.2134 48.667 31.2134C50.2469 31.2134 51.665 30.5793 52.6865 29.5442L52.698 29.5156C53.7209 28.4896 54.3444 27.0525 54.3444 25.4447C54.3444 23.8467 53.7209 22.4004 52.698 21.3642H52.6865ZM48.667 100.322C50.2469 100.322 51.665 99.6669 52.6865 98.6421L52.698 98.6126C53.7209 97.5894 54.3444 96.143 54.3444 94.5534C54.3444 92.9462 53.7209 91.5064 52.698 90.4648H52.6865C51.665 89.4109 50.2469 88.7738 48.667 88.7738C47.0906 88.7738 45.684 89.4109 44.6755 90.4648H44.6491C43.6308 91.5064 42.9989 92.9462 42.9989 94.5534C42.9989 96.143 43.6308 97.5894 44.6491 98.6126L44.6755 98.6421C45.684 99.6669 47.0906 100.322 48.667 100.322ZM79.5494 82.8455C80.9532 82.4697 82.2245 81.5531 83.0004 80.1662L83.105 79.9636C83.795 78.6506 83.9218 77.1321 83.5526 75.7852C83.1806 74.3462 82.2696 73.0698 80.9095 72.2762L80.8296 72.2212C79.5043 71.4803 77.9959 71.319 76.6099 71.7035C75.2002 72.0616 73.9332 73.017 73.1616 74.392C72.3802 75.7583 72.217 77.3289 72.5904 78.7746C72.977 80.1974 73.8809 81.4821 75.2323 82.2849H75.241C76.595 83.0778 78.127 83.2194 79.5494 82.8455ZM54.481 54.0885C52.993 52.5786 50.9395 51.6323 48.667 51.6323C46.3975 51.6323 44.3501 52.5786 42.8652 54.0885C41.3842 55.5966 40.4717 57.6772 40.4717 59.9898C40.4717 62.3022 41.3842 64.3917 42.8652 65.9178C44.3501 67.4186 46.3975 68.3562 48.667 68.3562C50.9395 68.3562 52.993 67.4186 54.481 65.9178C55.9646 64.3917 56.8771 62.3022 56.8771 59.9898C56.8771 57.6772 55.9646 55.5966 54.481 54.0885ZM51.2114 44.2583C54.5098 44.811 57.4726 46.4188 59.7367 48.7401H59.7542C60.1145 49.1051 60.4649 49.5074 60.7903 49.9096L66.45 46.5784C65.6885 44.2389 65.6537 41.793 66.265 39.4982C67.0718 36.4271 69.029 33.677 71.9628 31.9542L72.0588 31.8918C74.9606 30.2212 78.259 29.8737 81.2364 30.6942C84.2515 31.5165 86.9717 33.5171 88.6646 36.4982V36.5068C90.3502 39.4718 90.6917 42.8742 89.8879 45.9364C89.0858 49.0077 87.1212 51.7758 84.1903 53.4894L83.4173 53.9536H83.3388C80.6273 55.2671 77.6472 55.4726 74.9095 54.7391C72.6617 54.1326 70.5998 52.8551 68.9851 51.0436L63.3346 54.365C63.984 56.1141 64.3428 57.9981 64.3428 59.9898C64.3428 61.9713 63.984 63.8831 63.3346 65.6409L68.9851 68.9536C70.5998 67.1138 72.6617 65.8646 74.9095 65.2569C77.9261 64.4183 81.2681 64.7747 84.1903 66.5078L84.3778 66.5963V66.6052C87.1999 68.3471 89.0947 71.0339 89.8879 74.0694C90.6917 77.1143 90.3502 80.518 88.6646 83.4887L88.5626 83.6958L88.5509 83.6781C86.8584 86.5422 84.1903 88.4824 81.2448 89.3029C78.2239 90.1132 74.8805 89.7669 71.9626 88.059V88.0355C69.029 86.3099 67.0716 83.5538 66.265 80.4885C65.6534 78.2042 65.6885 75.7583 66.4498 73.4188L60.7901 70.0962C60.4646 70.4985 60.1142 70.883 59.754 71.248L59.7367 71.266C57.4726 73.5784 54.5098 75.1862 51.2114 75.7214V82.3754C53.5625 82.8753 55.6666 84.0717 57.3156 85.7498L57.3245 85.7675C59.5349 88.006 60.9036 91.1246 60.9036 94.5534C60.9036 97.971 59.5349 101.072 57.3245 103.322L57.3156 103.357C55.0894 105.606 52.0368 107 48.667 107C45.3146 107 42.2532 105.606 40.033 103.357H40.0241V103.322C37.811 101.072 36.4394 97.971 36.4394 94.5534C36.4394 91.1246 37.811 88.006 40.0241 85.7675V85.7498H40.033C41.6803 84.0717 43.7887 82.8753 46.1316 82.3754V75.7214C42.8328 75.1862 39.876 73.5784 37.615 71.266L37.5917 71.248C34.7686 68.3649 33 64.3917 33 59.9896C33 55.5966 34.7686 51.6232 37.5917 48.7401H37.615C39.876 46.4188 42.8328 44.811 46.1316 44.2583V37.6324C43.789 37.115 41.6806 35.9186 40.033 34.2491H40.0241V34.2314C37.8113 31.972 36.4394 28.8741 36.4394 25.4447C36.4394 22.0336 37.8113 18.9088 40.0241 16.6587L40.033 16.6496C42.2532 14.3915 45.3149 12.9995 48.667 12.9995C52.037 12.9995 55.0896 14.3915 57.3158 16.6496V16.6587H57.3247C59.5349 18.9088 60.9036 22.0336 60.9036 25.4447C60.9036 28.8741 59.5349 31.972 57.3247 34.2314L57.3158 34.2491C55.6666 35.9186 53.5625 37.115 51.2114 37.6324V44.2583ZM83.0004 39.8385L82.9526 39.7658C82.1724 38.428 80.9268 37.535 79.5494 37.15C78.127 36.766 76.595 36.9268 75.2323 37.7226H75.241C73.8809 38.5077 72.9713 39.7926 72.5904 41.2312C72.217 42.6597 72.3799 44.2389 73.1616 45.6143L73.1875 45.6498C73.9711 47.007 75.2177 47.9178 76.6099 48.2846C78.0074 48.6868 79.5667 48.5169 80.9093 47.721L80.9822 47.6855C82.3044 46.8827 83.1852 45.6143 83.5524 44.2211C83.9275 42.784 83.7775 41.2134 83.0004 39.8385Z" fill="#231F20"/>
</svg>
