<svg width="120" height="120" viewBox="0 0 120 120" fill="none" xmlns="http://www.w3.org/2000/svg">
<g clip-path="url(#clip0_91_155)">
<path d="M120 0H0V120H120V0Z" fill="#C4C4C4" fill-opacity="0.01"/>
<mask id="mask0_91_155" style="mask-type:luminance" maskUnits="userSpaceOnUse" x="12" y="12" width="96" height="96">
<path d="M107.143 12.8564H12.8578V107.142H107.143V12.8564Z" fill="white"/>
</mask>
<g mask="url(#mask0_91_155)">
<path d="M56.0402 14.1151C58.3975 12.7804 61.4028 12.7744 63.701 14.1151L98.8932 33.9535C101.094 35.1909 102.567 37.6451 102.547 40.1822V79.9588C102.562 82.6019 100.944 85.1092 98.6222 86.3231L63.6184 106.07C62.4213 106.732 61.0687 107.061 59.7014 107.023C58.3341 106.985 57.0016 106.582 55.8429 105.855L45.3388 99.7855C44.6229 99.3583 43.8184 99.0194 43.3118 98.327C43.7596 97.7258 44.5552 97.6492 45.2032 97.384C46.6648 96.9187 48.0024 96.2056 49.3461 95.4513C49.6848 95.2156 50.1002 95.3039 50.4244 95.5161L59.3815 100.696C60.0208 101.064 60.6691 100.578 61.2172 100.269L95.5872 80.8723C96.0115 80.6661 96.2472 80.2183 96.2119 79.7527V40.3588C96.2592 39.8287 95.9556 39.3453 95.4753 39.1303L60.5601 19.4687C60.359 19.3296 60.1202 19.2548 59.8756 19.2543C59.6308 19.2537 59.3918 19.3275 59.19 19.4658L24.3249 39.1687C23.8535 39.3837 23.5294 39.8611 23.5883 40.3912V79.7851C23.5471 80.2507 23.7946 80.6896 24.2217 80.89L33.5385 86.1494C35.2886 87.0923 37.4366 87.6225 39.3636 86.9301C40.2067 86.6123 40.9327 86.0445 41.4441 85.3024C41.9553 84.5603 42.2277 83.6798 42.2246 82.7786L42.2332 43.6207C42.1922 43.0401 42.7401 42.5599 43.3029 42.6189H47.7816C48.3708 42.604 48.8332 43.2287 48.7538 43.8122L48.7449 83.2178C48.7478 86.7179 47.31 90.5248 44.0719 92.2425C40.0824 94.3051 35.1501 93.8719 31.2079 91.889L21.1899 86.3498C18.8328 85.1711 17.2506 82.6255 17.2653 79.9855V40.2086C17.2751 38.9159 17.6305 37.6492 18.2947 36.5399C18.9589 35.4307 19.9076 34.5194 21.0426 33.9004L56.0402 14.1151ZM66.1879 41.6877C71.2764 41.3932 76.7241 41.4933 81.3031 44.0006C84.8476 45.9218 86.8128 49.9526 86.8776 53.8948C86.7775 54.4252 86.2236 54.7197 85.7167 54.6815C84.2436 54.6787 82.7645 54.7022 81.2853 54.6727C80.6577 54.6962 80.2953 54.1187 80.2156 53.5648C79.7916 51.6791 78.7632 49.8141 76.9893 48.9035C74.267 47.5394 71.1084 47.6071 68.1384 47.6366C65.9697 47.7544 63.6391 47.9402 61.8036 49.2129C60.3892 50.1794 59.9649 52.1594 60.4687 53.6973C60.9403 54.8258 62.2454 55.1882 63.3091 55.5242C69.4437 57.1271 75.9405 56.9973 81.96 59.0805C84.4497 59.9409 86.8864 61.6144 87.7408 64.222C88.8547 67.7164 88.3684 71.8946 85.8847 74.6995C83.8694 77.0095 80.9347 78.2351 78.0031 78.9482C74.1048 79.8175 70.0624 79.8381 66.1053 79.4493C62.3839 79.025 58.5124 78.0467 55.6396 75.5128C53.1823 73.3795 51.9861 70.0559 52.104 66.8503C52.1332 66.3081 52.6725 65.9311 53.194 65.9752H57.6136C58.2088 65.9339 58.6449 66.4466 58.6744 67.0065C58.9485 68.7743 59.6232 70.6895 61.1906 71.7208C64.2136 73.6713 68.0056 73.5357 71.4648 73.5916C74.3318 73.4649 77.5492 73.4267 79.8916 71.5293C81.1291 70.4479 81.4915 68.6416 81.1586 67.0859C80.7962 65.7719 79.3908 65.1619 78.2121 64.7289C72.1572 62.8137 65.5867 63.509 59.5908 61.3403C57.1569 60.4802 54.8028 58.8537 53.8687 56.3522C52.5636 52.8165 53.1616 48.4351 55.9106 45.7243C58.5624 43.0283 62.4518 41.9882 66.1348 41.6171L66.1879 41.6877Z" fill="#8CC84B"/>
</g>
</g>
<defs>
<clipPath id="clip0_91_155">
<rect width="120" height="120" fill="white"/>
</clipPath>
</defs>
</svg>
