<svg width="120" height="120" viewBox="0 0 120 120" fill="none" xmlns="http://www.w3.org/2000/svg">
<path d="M103.855 86.2498C104.561 84.9816 105 83.5526 105 82.2696V37.7299C105 36.4466 104.562 35.0182 103.855 33.75L60 59.9998L103.855 86.2498Z" fill="#7F3A86"/>
<path d="M63.8969 111.537L101.103 89.2678C102.175 88.6262 103.149 87.5184 103.855 86.2498L60 60L16.1449 86.2502C16.8511 87.5184 17.8255 88.6265 18.897 89.2678L56.1029 111.537C58.2461 112.82 61.7537 112.82 63.8969 111.537Z" fill="#662579"/>
<path d="M103.855 33.7498C103.149 32.4814 102.174 31.3735 101.103 30.732L63.8971 8.46233C61.7539 7.17922 58.2461 7.17922 56.1029 8.46233L18.897 30.732C16.7535 32.0148 15 35.1641 15 37.7299V82.2696C15 83.5529 15.4385 84.9816 16.145 86.2498L60 60L103.855 33.7498Z" fill="#9A5196"/>
<path d="M60.1445 90C43.5228 90 30 76.542 30 60C30 43.458 43.5228 30 60.1445 30C70.6716 30 80.503 35.5339 85.9464 44.4816L73.037 52.2242C70.3094 47.76 65.3995 45 60.1445 45C51.8333 45 45.0722 51.7289 45.0722 60C45.0722 68.2709 51.8333 75 60.1445 75C65.3856 75 70.2828 72.2554 73.015 67.812L85.9519 75.5095C80.5094 84.4627 70.6752 90 60.1445 90Z" fill="white"/>
<path fill-rule="evenodd" clip-rule="evenodd" d="M93.7502 48.75V52.4902H86.2498V48.75H82.5002V52.4902H78.75V56.25H82.5002V63.7303H78.75V67.5H82.5002V71.25H86.2498L86.25 67.5H93.7502V71.25H97.4998V67.5H101.25V63.75H97.4998V56.25H101.25V52.4902H97.4998V48.75H93.7502ZM93.7502 63.75V56.25H86.2498V63.7303L93.7502 63.75Z" fill="white"/>
</svg>
