<svg width="120" height="120" viewBox="0 0 120 120" fill="none" xmlns="http://www.w3.org/2000/svg">
<path fill-rule="evenodd" clip-rule="evenodd" d="M60.0527 18.5801L96.644 39.706V81.9578L60.0527 103.084L23.4616 81.9578V39.706L60.0527 18.5801ZM27.5673 42.0764V73.1114L54.4445 26.5589L27.5673 42.0764ZM60.0527 25.0561L29.0699 78.7199H91.0358L60.0527 25.0561ZM86.9301 82.8255H33.1755L60.0527 98.3429L86.9301 82.8255ZM92.5383 73.1114L65.6612 26.5589L92.5383 42.0764V73.1114Z" fill="#E10098"/>
<path d="M60.0522 29.5963C64.8278 29.5963 68.6993 25.725 68.6993 20.9493C68.6993 16.1737 64.8278 12.3022 60.0522 12.3022C55.2765 12.3022 51.4052 16.1737 51.4052 20.9493C51.4052 25.725 55.2765 29.5963 60.0522 29.5963Z" fill="#E10098"/>
<path d="M94.5915 49.5368C99.367 49.5368 103.239 45.6655 103.239 40.8897C103.239 36.1142 99.367 32.2427 94.5915 32.2427C89.8158 32.2427 85.9445 36.1142 85.9445 40.8897C85.9445 45.6655 89.8158 49.5368 94.5915 49.5368Z" fill="#E10098"/>
<path d="M94.5915 89.4196C99.367 89.4196 103.239 85.5483 103.239 80.7726C103.239 75.997 99.367 72.1255 94.5915 72.1255C89.8158 72.1255 85.9445 75.997 85.9445 80.7726C85.9445 85.5483 89.8158 89.4196 94.5915 89.4196Z" fill="#E10098"/>
<path d="M60.0522 109.36C64.8278 109.36 68.6993 105.488 68.6993 100.712C68.6993 95.937 64.8278 92.0654 60.0522 92.0654C55.2765 92.0654 51.4052 95.937 51.4052 100.712C51.4052 105.488 55.2765 109.36 60.0522 109.36Z" fill="#E10098"/>
<path d="M25.5094 89.4196C30.2852 89.4196 34.1565 85.5483 34.1565 80.7726C34.1565 75.997 30.2852 72.1255 25.5094 72.1255C20.7338 72.1255 16.8624 75.997 16.8624 80.7726C16.8624 85.5483 20.7338 89.4196 25.5094 89.4196Z" fill="#E10098"/>
<path d="M25.5094 49.5368C30.2852 49.5368 34.1565 45.6655 34.1565 40.8897C34.1565 36.1142 30.2852 32.2427 25.5094 32.2427C20.7338 32.2427 16.8624 36.1142 16.8624 40.8897C16.8624 45.6655 20.7338 49.5368 25.5094 49.5368Z" fill="#E10098"/>
</svg>
