<svg width="120" height="120" viewBox="0 0 120 120" fill="none" xmlns="http://www.w3.org/2000/svg">
<path fill-rule="evenodd" clip-rule="evenodd" d="M29.0981 62.9176L38.1783 53.9846C38.1783 50.1166 38.1783 46.166 38.1783 42.2244C38.1783 39.2037 38.7769 38.6328 41.8621 38.6234C45.9416 38.6234 50.0306 38.6234 54.1103 38.6234C56.5416 38.6234 57.352 39.434 57.3703 41.8745C57.3703 45.3554 57.4256 48.8366 57.3703 52.3178C57.3332 52.9136 57.4306 53.5103 57.6553 54.0634C57.88 54.6168 58.2266 55.1121 58.6689 55.5133C60.7962 57.5853 62.8223 59.6481 64.9219 61.7387C65.1889 62.0825 65.5273 62.3641 65.9136 62.5644C66.3 62.7646 66.7252 62.879 67.1597 62.8992C70.7054 62.8992 74.2416 62.8992 77.7228 62.8992C80.5593 60.0811 83.3035 57.3736 86.0663 54.6107C86.3259 54.3063 86.5176 53.9503 86.6287 53.5658C86.74 53.1816 86.768 52.778 86.711 52.3823C86.711 48.8366 86.711 45.291 86.711 41.7455C86.711 39.3418 87.4386 38.6328 89.8421 38.6143C94.1397 38.6143 98.4374 38.6143 102.735 38.6143C105.065 38.6143 105.931 39.434 105.958 41.7086C105.995 46.0554 105.995 50.4053 105.958 54.7583C105.958 57.0053 105.037 57.8432 102.726 57.8616C99.1805 57.8616 95.6348 57.8616 92.08 57.8616C91.5179 57.826 90.9546 57.9168 90.432 58.1272C89.9094 58.3376 89.4402 58.662 89.0595 59.0773C87.0517 61.1524 85.0012 63.1877 82.9077 65.183C82.4687 65.5898 82.1261 66.0896 81.9047 66.6456C81.6833 67.2016 81.5884 67.7999 81.6275 68.3971C81.692 71.9333 81.6275 75.4881 81.6275 79.0338C81.6275 81.3267 80.7619 82.1465 78.4503 82.1648C74.1527 82.1648 69.8703 82.1648 65.6035 82.1648C63.1906 82.1648 62.463 81.4373 62.4447 79.0613C62.4447 75.5159 62.3894 71.9703 62.4447 68.4246C62.4762 67.8608 62.38 67.2971 62.1633 66.7757C61.9463 66.254 61.6143 65.7884 61.1922 65.4133C58.9635 63.2952 56.8087 61.1034 54.6628 58.8931C54.3602 58.5371 53.9762 58.259 53.5435 58.0827C53.1106 57.9063 52.6416 57.8368 52.1764 57.8801C51.716 57.8801 51.2555 57.8801 50.7765 57.8801C47.7835 57.9905 44.3301 56.8486 41.8805 58.267C38.7586 60.1086 36.447 63.3411 33.7762 65.9566C33.4936 66.2867 33.2863 66.6743 33.1687 67.0926C33.051 67.5107 33.0259 67.9496 33.0948 68.3787C33.0948 71.8597 33.0948 75.3409 33.0948 78.822C33.0948 81.3728 32.2845 82.1465 29.7059 82.1557C25.488 82.1557 21.2701 82.1557 17.0523 82.1557C14.6579 82.1557 13.9396 81.419 13.9304 79.0152C13.9304 74.6625 13.9304 70.3126 13.9304 65.9658C13.9304 63.7463 14.7316 62.9728 16.9878 62.9451C21.0675 62.9451 25.1473 62.9451 29.0795 62.9451L29.0981 62.9176Z" fill="#80C056"/>
<path fill-rule="evenodd" clip-rule="evenodd" d="M13.9488 24.4317C13.9488 22.2951 13.9488 20.1586 13.9488 17.9852C14.0133 16.0605 14.9342 15.0658 16.9602 15.0382C21.3009 14.983 25.6384 14.983 29.973 15.0382C32.0082 15.0382 33.0487 16.0789 33.0765 18.1417C33.144 22.4394 33.144 26.7124 33.0765 30.9611C33.0765 33.1251 31.9991 34.1658 29.8624 34.1842C25.5647 34.2395 21.2917 34.2395 17.0431 34.1842C14.9987 34.1475 14.0133 33.0884 14.0133 31.0348C13.9212 28.843 13.9488 26.6326 13.9488 24.4317ZM13.9488 96.7428C13.9488 94.606 13.9488 92.4696 13.9488 90.2962C13.9488 88.1228 14.9803 87.211 17.0431 87.1835C21.3039 87.1159 25.5739 87.1159 29.8532 87.1835C31.9991 87.1835 33.0304 88.2609 33.0765 90.4251C33.1318 94.7227 33.1318 98.9959 33.0765 103.244C33.0765 105.289 31.9805 106.302 29.9452 106.32C25.6047 106.369 21.2671 106.369 16.9326 106.32C14.9342 106.339 14.0133 105.344 14.0133 103.364C13.9028 101.154 13.9488 98.9437 13.9488 96.7428ZM38.1967 23.7962C38.1967 21.7241 38.1967 19.6521 38.1967 17.5892C38.1967 15.3237 39.1177 14.3659 41.3372 14.3383C45.6348 14.2892 49.9108 14.2892 54.1657 14.3383C56.2377 14.3383 57.3059 15.3421 57.3428 17.3866C57.4104 21.7272 57.4104 26.0679 57.3428 30.4084C57.3428 32.4162 56.2101 33.4658 54.1657 33.4936C49.868 33.5489 45.5948 33.5489 41.3464 33.4936C39.1913 33.4936 38.2428 32.4253 38.1967 30.215C38.1508 28.0049 38.1967 25.9329 38.1967 23.7962ZM62.4722 23.7409C62.4722 21.6044 62.4172 19.4679 62.4722 17.2945C62.5275 15.3513 63.4946 14.3659 65.4562 14.3015C69.8028 14.3015 74.1435 14.3015 78.4781 14.3015C80.5132 14.3015 81.5722 15.3329 81.6092 17.3958C81.6767 21.7303 81.6767 26.071 81.6092 30.4176C81.6522 30.8258 81.6038 31.2383 81.4675 31.6253C81.3313 32.0122 81.1104 32.3642 80.8212 32.655C80.532 32.9461 80.1814 33.1691 79.7953 33.3077C79.4092 33.4463 78.997 33.4973 78.5885 33.4566C74.1866 33.5242 69.7784 33.5242 65.364 33.4566C64.9762 33.4755 64.5887 33.4124 64.2268 33.2715C63.865 33.1305 63.5369 32.9148 63.264 32.6383C62.9913 32.3621 62.7795 32.0312 62.6433 31.6677C62.5068 31.3042 62.4485 30.9157 62.4722 30.5282C62.4264 28.2811 62.4722 26.0157 62.4722 23.7409ZM47.4981 82.0999C45.4261 82.0999 43.3539 82.0999 41.2819 82.0999C39.2099 82.0999 38.2337 81.05 38.2153 78.9689C38.1661 74.622 38.1661 70.2813 38.2153 65.947C38.1772 65.5437 38.2282 65.1369 38.365 64.7555C38.5017 64.3741 38.7207 64.0275 39.0061 63.7402C39.2918 63.4526 39.6372 63.2317 40.0177 63.0926C40.3981 62.9536 40.8047 62.8999 41.2082 62.9355C45.5426 62.8741 49.8833 62.8741 54.2301 62.9355C56.1732 62.9355 57.2875 63.9853 57.3245 65.8825C57.4042 70.2905 57.4042 74.6988 57.3245 79.107C57.3245 81.1053 56.1732 82.0724 54.1012 82.1183C52.029 82.1644 49.6991 82.0999 47.4981 82.0999ZM47.6915 106.394C45.5642 106.394 43.4275 106.394 41.2911 106.394C39.1546 106.394 38.2337 105.39 38.2153 103.291C38.1661 98.9929 38.1661 94.7197 38.2153 90.4712C38.2153 88.2978 39.2374 87.2755 41.4108 87.2479C45.7085 87.1804 49.9847 87.1804 54.2393 87.2479C56.256 87.2479 57.3245 88.3439 57.352 90.3884C57.4195 94.6861 57.4195 98.959 57.352 103.207C57.352 105.381 56.256 106.357 54.1012 106.403C51.9461 106.449 49.8372 106.394 47.6915 106.394ZM71.8659 106.394C69.7937 106.394 67.7217 106.394 65.6588 106.394C63.5958 106.394 62.4908 105.399 62.4722 103.18C62.4294 98.8823 62.4294 94.6091 62.4722 90.3606C62.4722 88.3162 63.5313 87.2571 65.5666 87.2296C69.8643 87.1621 74.1405 87.1621 78.3951 87.2296C80.5318 87.2296 81.5908 88.3253 81.6184 90.4804C81.6737 94.778 81.6737 99.0512 81.6184 103.3C81.6184 105.353 80.5132 106.348 78.4781 106.394C76.277 106.394 74.076 106.394 71.8659 106.394ZM62.4539 48.2837C62.4539 46.147 62.4539 44.0013 62.4539 41.8371C62.4539 39.6729 63.4485 38.6046 65.6127 38.5863C69.9104 38.531 74.1866 38.531 78.4412 38.5863C80.4948 38.5863 81.5631 39.627 81.6 41.6715C81.6675 46.0058 81.6675 50.3496 81.6 54.7025C81.6 56.7101 80.4673 57.7416 78.4137 57.7691C74.116 57.8244 69.8398 57.8244 65.5852 57.7691C63.4393 57.7691 62.4908 56.6825 62.4447 54.4722C62.3986 52.2621 62.4539 50.3557 62.4539 48.2837ZM96.2334 105.685C94.097 105.685 91.9605 105.685 89.7871 105.685C87.6137 105.685 86.7664 104.681 86.7664 102.572C86.7111 98.2253 86.7111 93.8816 86.7664 89.5411C86.7257 89.1371 86.7744 88.7291 86.9094 88.3461C87.0443 87.9632 87.2619 87.6148 87.5468 87.3253C87.8315 87.0362 88.1767 86.8131 88.5577 86.6724C88.9384 86.5317 89.3457 86.4766 89.7501 86.5112C94.097 86.4468 98.4344 86.5112 102.781 86.5112C103.187 86.4597 103.599 86.499 103.987 86.6258C104.376 86.7529 104.731 86.9646 105.028 87.2456C105.325 87.5265 105.556 87.87 105.704 88.251C105.852 88.6319 105.914 89.0411 105.885 89.4489C105.958 93.9246 105.958 98.4096 105.885 102.876C105.906 103.267 105.842 103.658 105.696 104.021C105.551 104.385 105.328 104.712 105.043 104.98C104.758 105.249 104.418 105.452 104.046 105.575C103.675 105.698 103.281 105.739 102.892 105.694L96.2334 105.685ZM96.2979 62.8896C98.4344 62.8896 100.571 62.8896 102.744 62.8896C104.918 62.8896 105.866 63.9486 105.903 65.9929C105.977 70.3397 105.977 74.6835 105.903 79.0242C105.903 81.0778 104.789 82.0724 102.744 82.0999C98.4468 82.1491 94.1706 82.1491 89.916 82.0999C87.8254 82.0999 86.8125 81.087 86.7939 79.0242C86.7388 74.6773 86.7388 70.3336 86.7939 65.9929C86.7939 63.9762 87.8624 62.9632 89.9252 62.9079C91.988 62.8526 94.1981 62.9079 96.3715 62.9079L96.2979 62.8896ZM96.2979 14.3015C98.4252 14.3015 100.571 14.3015 102.744 14.3015C104.918 14.3015 105.857 15.3053 105.894 17.3681C105.968 21.7149 105.968 26.0555 105.894 30.3901C105.894 32.4253 104.77 33.4475 102.717 33.4752C98.4191 33.5303 94.1461 33.5303 89.8974 33.4752C87.8254 33.4752 86.8033 32.4162 86.7755 30.3717C86.7325 26.031 86.7325 21.6904 86.7755 17.3497C86.7664 15.3053 87.7701 14.3844 89.8882 14.3015C92.0064 14.2186 94.1614 14.3015 96.3348 14.3015H96.2979ZM23.6461 38.6046C25.7181 38.6046 27.7904 38.5585 29.8624 38.6046C31.9346 38.6508 33.0212 39.6178 33.0581 41.6529C33.1318 45.9875 33.1318 50.3312 33.0581 54.6839C33.0581 56.6917 31.9252 57.7324 29.8715 57.7599C25.5739 57.8152 21.2978 57.8152 17.0431 57.7599C14.9342 57.7324 14.0133 56.6639 13.958 54.6103C13.9089 50.3126 13.9089 46.0366 13.958 41.7818C13.958 39.6178 15.0079 38.6599 17.2181 38.6138C19.4283 38.5679 21.5188 38.6046 23.6461 38.6046Z" fill="#04789A"/>
</svg>
