<svg width="120" height="120" viewBox="0 0 120 120" fill="none" xmlns="http://www.w3.org/2000/svg">
<path d="M83.0086 94.7683C70.6313 101.888 53.6126 102.619 36.4906 95.3122C22.627 89.4391 11.124 79.1587 3.75 67.4129C7.28952 70.3493 11.4189 72.6996 15.8431 74.754C33.5254 83.0064 51.204 82.4412 63.6449 74.7751C45.9473 61.265 30.8861 43.6224 19.6781 29.233C17.3175 26.8834 15.5477 23.9462 13.7779 21.3031C27.3458 33.6379 48.8789 49.2026 56.5462 53.61C40.3258 36.5746 25.8715 15.4301 26.4605 16.0164C52.1222 41.8613 76.0152 56.5464 76.0152 56.5464C76.8055 56.9902 77.4156 57.3598 77.9062 57.6898C78.4234 56.3801 78.877 55.02 79.2588 53.61C83.3882 38.6316 78.6701 21.5963 68.3453 7.5C92.2356 21.8907 106.395 48.9094 100.494 71.5248C100.341 72.1346 100.173 72.7368 99.9931 73.3284C111.79 88.0135 108.753 103.831 107.279 100.895C100.879 88.4254 89.0316 92.2385 83.0086 94.7683Z" fill="url(#paint0_linear_91_152)"/>
<defs>
<linearGradient id="paint0_linear_91_152" x1="56.2886" y1="7.5" x2="56.2886" y2="101.255" gradientUnits="userSpaceOnUse">
<stop stop-color="#F88A36"/>
<stop offset="1" stop-color="#FD2020"/>
</linearGradient>
</defs>
</svg>
